<?xml version="1.0" encoding="utf-8"?>
<!-- Generator: Adobe Illustrator 28.0.0, SVG Export Plug-In . SVG Version: 6.00 Build 0)  -->
<svg version="1.1" id="_レイヤー_2" xmlns="http://www.w3.org/2000/svg" xmlns:xlink="http://www.w3.org/1999/xlink" x="0px"
	 y="0px" viewBox="0 0 448.1 46.4" style="enable-background:new 0 0 448.1 46.4;" xml:space="preserve">
<style type="text/css">
	.st0{fill:#231815;}
	.st1{clip-path:url(#SVGID_00000132085274839094707700000002035938530687737217_);}
	.st2{fill:#6B9E71;}
	.st3{fill:#3E403E;}
	.st4{fill:#CA7B99;}
	.st5{fill:#FFFFFF;}
	.st6{clip-path:url(#SVGID_00000060012109834243417590000011790917373559379892_);}
	.st7{clip-path:url(#SVGID_00000048475513851002049770000009608332979640113077_);}
	.st8{clip-path:url(#SVGID_00000065780658240564421050000001431872834242085817_);}
	.st9{clip-path:url(#SVGID_00000060743083402339538480000013199852860997407130_);}
	.st10{clip-path:url(#SVGID_00000125563377452315273850000005200567776559117473_);}
	.st11{clip-path:url(#SVGID_00000061432090715775905700000012672396100771330969_);}
	.st12{clip-path:url(#SVGID_00000147219177259678882170000007643473842049030551_);}
</style>
<path class="st0" d="M61.7,38.3c-0.3,0-0.7,0-0.9-0.2s-0.4-0.5-0.5-0.8c-0.2-0.9-0.3-2.1-0.4-3.5c-0.1-1.5-0.2-3.1-0.2-4.9
	s0-3.7,0-5.6s0.1-3.9,0.2-5.7c0.1-1.9,0.2-3.6,0.4-5.1c0.2-1.5,0.4-2.8,0.6-3.8c0.1-0.3,0.3-0.6,0.5-0.8s0.6-0.2,1-0.2
	s0.6,0.3,0.8,0.6c0.2,0.3,0.2,0.6,0.1,1c-0.2,1-0.4,2.2-0.6,3.7c-0.2,1.5-0.3,3.1-0.4,4.9c-0.1,1.8-0.2,3.6-0.2,5.4
	c0,1.9,0,3.6,0,5.4s0.1,3.3,0.2,4.7s0.2,2.6,0.4,3.5c0,0.3,0,0.7-0.2,0.9C62.4,38,62.1,38.2,61.7,38.3L61.7,38.3z M75,38
	c-1.7,0-3.1-0.4-4.2-1.2c-1.2-0.8-1.7-2-1.7-3.7c0-1.5,0.5-2.8,1.6-3.6c1.1-0.9,2.5-1.3,4.4-1.3c0.6,0,1.1,0,1.7,0.1
	c0.6,0,1.2,0.1,1.7,0.2c0-1.1-0.1-2.3-0.1-3.7s-0.1-2.8-0.1-4.2c-1.4,0.1-2.7,0.2-4,0.2c-1.3,0-2.4,0-3.3,0c-0.3,0-0.6-0.2-0.9-0.4
	c-0.2-0.2-0.3-0.5-0.3-0.9c0-0.4,0.2-0.7,0.4-0.9c0.2-0.2,0.6-0.3,0.9-0.3c0.8,0,1.9,0,3.1,0s2.6-0.1,4-0.2c-0.1-2.1-0.1-4-0.1-5.7
	c-1.2,0.1-2.3,0.2-3.4,0.2s-2.2,0.1-3.2,0.1c-0.3,0-0.6-0.1-0.9-0.4s-0.4-0.6-0.4-0.9s0.1-0.6,0.4-0.9s0.5-0.4,0.9-0.4
	c1.4,0,2.9-0.1,4.5-0.1s3.2-0.2,4.7-0.4c1.5-0.1,2.8-0.3,3.9-0.5c0.3-0.1,0.7,0,0.9,0.2c0.3,0.2,0.4,0.5,0.5,0.8
	c0.1,0.3,0,0.7-0.2,0.9c-0.2,0.3-0.5,0.5-0.8,0.5c-0.6,0.1-1.3,0.2-2,0.3s-1.5,0.2-2.3,0.2c0,0.8,0,1.8,0,2.7c0,1,0,2,0.1,3
	c1-0.1,2-0.2,2.9-0.3c0.9-0.1,1.7-0.2,2.4-0.3c0.4,0,0.7,0,1,0.2c0.3,0.2,0.4,0.5,0.5,0.8c0.1,0.3,0,0.6-0.2,0.9
	c-0.2,0.3-0.5,0.4-0.8,0.5c-0.7,0.1-1.6,0.2-2.6,0.3s-2,0.2-3.1,0.3c0.1,1.6,0.1,3.2,0.1,4.7c0,1.5,0.1,2.9,0.1,4
	c1.6,0.5,3,1,4.4,1.7c1.4,0.7,2.6,1.4,3.6,2.2c0.3,0.2,0.5,0.5,0.5,0.8c0.1,0.3,0,0.7-0.2,1c-0.2,0.3-0.5,0.5-0.8,0.5
	c-0.3,0-0.7,0-0.9-0.2c-0.8-0.6-1.8-1.2-2.9-1.8S82.3,32,81,31.6v0.7c0,1.8-0.5,3.2-1.4,4.2S77.1,37.9,75,38L75,38z M75,35.6
	c1.3,0,2.2-0.3,2.8-0.8s0.8-1.4,0.8-2.5v-1.4c-0.6-0.1-1.2-0.2-1.8-0.3s-1.2-0.1-1.8-0.1c-1.2,0-2.1,0.2-2.7,0.7s-0.8,1.1-0.8,1.8
	c0,0.8,0.3,1.5,0.9,1.9S73.9,35.6,75,35.6z M90.2,17.3c-1.1,0-1.9-0.4-2.7-1.1c-0.7-0.7-1.1-1.6-1.1-2.7s0.4-1.9,1.1-2.6
	c0.7-0.7,1.6-1.1,2.7-1.1s1.9,0.4,2.7,1.1c0.7,0.7,1.1,1.6,1.1,2.6s-0.4,1.9-1.1,2.7C92.1,17,91.2,17.3,90.2,17.3z M90.2,15.7
	c0.6,0,1.1-0.2,1.6-0.6c0.4-0.4,0.7-0.9,0.7-1.6s-0.2-1.1-0.7-1.6c-0.4-0.4-1-0.6-1.6-0.6s-1.1,0.2-1.6,0.6c-0.4,0.4-0.7,1-0.7,1.6
	s0.2,1.1,0.7,1.6C89.1,15.5,89.6,15.7,90.2,15.7z"/>
<path class="st0" d="M100,37.4c-0.3-0.1-0.5-0.4-0.7-0.7s-0.1-0.7,0-1c0.4-1,1-2.2,1.7-3.6s1.5-3.1,2.3-4.9c0.9-1.8,1.7-3.6,2.7-5.5
	c0.9-1.9,1.8-3.7,2.7-5.4s1.6-3.3,2.3-4.7s1.3-2.5,1.7-3.4c0.2-0.3,0.4-0.5,0.8-0.6s0.7-0.1,0.9,0.1c0.3,0.2,0.5,0.4,0.6,0.8
	c0.1,0.3,0.1,0.6-0.1,0.9c-0.4,0.8-1.1,1.9-1.8,3.4c-0.8,1.5-1.6,3.1-2.5,5c-0.9,1.8-1.9,3.7-2.8,5.7c0.8-0.6,1.7-1.1,2.5-1.5
	c0.9-0.4,1.7-0.5,2.5-0.5c2.2,0,3.7,0.7,4.5,2s0.8,3.2,0.2,5.7c-0.5,1.9-0.5,3.2,0,4s1.4,1.2,2.8,1.2s2.5-0.5,3.5-1.4s2-2.7,2.9-5.2
	c0.1-0.3,0.4-0.5,0.7-0.7c0.3-0.1,0.6-0.1,0.9,0c0.3,0.1,0.6,0.3,0.7,0.6c0.1,0.3,0.1,0.6,0,1c-1.1,2.8-2.3,4.9-3.7,6.2
	c-1.4,1.3-3.1,2-5.1,2c-1.4,0-2.7-0.3-3.6-0.9c-1-0.6-1.6-1.5-1.9-2.8c-0.3-1.2-0.2-2.8,0.3-4.7c0.4-1.6,0.5-2.8,0.2-3.5
	c-0.3-0.8-1.2-1.1-2.5-1.1c-1.5,0-3,0.5-4.4,1.5c-1.4,1-2.7,2.7-3.8,4.9c-0.6,1.2-1.1,2.4-1.6,3.6s-0.9,2.1-1.3,2.9
	c-0.1,0.3-0.4,0.5-0.7,0.7C100.6,37.5,100.3,37.5,100,37.4L100,37.4z"/>
<path class="st0" d="M156.9,36.5c-0.3,0.1-0.7,0-1-0.1s-0.5-0.4-0.6-0.8c-0.1-0.4-0.1-0.7,0.1-1c0.2-0.3,0.4-0.5,0.8-0.6
	c3.1-0.8,5.4-2.1,7.2-4s2.6-4.3,2.6-7.3c0-2-0.5-3.8-1.4-5.3c-0.9-1.5-2.2-2.8-3.9-3.7c-1.7-0.9-3.7-1.4-5.9-1.5
	c-0.3,3.2-0.7,6.1-1.4,8.8s-1.4,4.9-2.3,6.8s-1.9,3.4-3,4.4c-1.1,1-2.2,1.6-3.3,1.6c-1.3,0-2.4-0.4-3.4-1.2c-1-0.8-1.7-1.9-2.3-3.3
	s-0.8-3-0.8-4.7c0-2.1,0.4-4.1,1.2-5.9c0.8-1.8,1.9-3.4,3.4-4.7s3.1-2.4,5.1-3.1s4-1.1,6.3-1.1c2.7,0,5.2,0.5,7.3,1.6
	s3.9,2.6,5.1,4.5c1.2,1.9,1.9,4.2,1.9,6.8c0,3.5-1.1,6.5-3.2,8.8S160.5,35.6,156.9,36.5L156.9,36.5z M144.8,31.2
	c0.7,0,1.5-0.5,2.3-1.5c0.8-1,1.6-2.3,2.3-4.1s1.4-3.8,1.9-6c0.5-2.3,0.9-4.7,1.1-7.3c-2.5,0.3-4.6,1-6.3,2.2
	c-1.7,1.2-3,2.7-3.9,4.5c-0.9,1.8-1.3,3.6-1.3,5.6s0.4,3.6,1.1,4.8C142.7,30.6,143.7,31.2,144.8,31.2L144.8,31.2z"/>
<path class="st0" d="M193.8,39.9c-0.3,0.2-0.6,0.3-0.9,0.3c-0.4,0-0.6-0.2-0.9-0.4c-0.2-0.3-0.3-0.6-0.3-0.9s0.1-0.7,0.4-0.9
	c2.2-2,3.9-4.2,5.1-6.8c1.2-2.5,1.8-5.3,1.8-8.1c0-2-0.6-3.6-1.7-4.7s-2.7-1.7-4.6-1.7c-2.7,0-5.3,1.1-7.9,3.4
	c-0.3,0.2-0.6,0.4-0.9,0.3s-0.6-0.1-0.8-0.4c-0.2-0.3-0.3-0.6-0.3-1c0-0.3,0.2-0.6,0.4-0.8c1.5-1.3,3-2.3,4.7-2.9
	c1.6-0.7,3.2-1,4.8-1c1.7,0,3.3,0.4,4.6,1.1s2.4,1.7,3.1,3c0.8,1.3,1.1,2.9,1.1,4.8c0,3.1-0.7,6.2-2,9.1
	C198,35.2,196.2,37.8,193.8,39.9L193.8,39.9z M197.8,11.1c-1.9-0.5-3.7-1.1-5.6-1.7s-3.5-1.4-4.9-2c-0.3-0.2-0.5-0.4-0.6-0.7
	s-0.1-0.6,0.1-0.9c0.2-0.3,0.4-0.5,0.7-0.6c0.3-0.1,0.6-0.1,1,0.1c1.3,0.6,2.9,1.3,4.6,1.9c1.7,0.6,3.5,1.2,5.4,1.7
	c0.3,0.1,0.6,0.3,0.8,0.6c0.2,0.3,0.2,0.6,0.1,0.9c-0.1,0.3-0.3,0.6-0.6,0.8S198.2,11.2,197.8,11.1z"/>
<path class="st0" d="M243.2,39.4c-2.7,0.5-4.7,0.7-6.1,0.4c-1.4-0.3-2.4-0.9-2.9-1.8c-0.5-1-0.6-2.2-0.5-3.8c0.1-0.8,0-1.3-0.4-1.7
	s-0.9-0.5-1.4-0.5c-0.6,0-1.1,0.3-1.5,0.7c-0.6,0.5-1.3,1.2-2.2,2c-0.8,0.8-1.7,1.6-2.5,2.4s-1.5,1.4-2,1.9
	c-0.2,0.2-0.5,0.3-0.8,0.3s-0.6-0.1-0.8-0.3s-0.3-0.5-0.3-0.8s0.1-0.6,0.4-0.8c0.7-0.6,1.5-1.3,2.5-2.2c1-0.9,2-1.9,3.1-2.9
	c1.1-1,2.1-2,3-2.9s1.7-1.7,2.3-2.3s0.9-1.2,0.9-1.8s-0.2-1-0.6-1.2c-0.5-0.3-1.2-0.3-2.2-0.2c-0.2,0-0.5,0.1-1.1,0.2
	c-0.5,0.1-1.1,0.2-1.8,0.3s-1.2,0.2-1.8,0.3s-0.9,0.1-1,0.2c-0.3,0-0.6,0-0.8-0.2c-0.3-0.2-0.4-0.4-0.5-0.7c0-0.3,0.1-0.6,0.2-0.8
	s0.4-0.4,0.7-0.4c0.1,0,0.4-0.1,0.9-0.1s1.1-0.1,1.8-0.3c0.7-0.1,1.3-0.2,1.8-0.3c0.6-0.1,0.9-0.1,1.1-0.1c1.4-0.2,2.6-0.1,3.4,0.2
	s1.5,0.9,1.8,1.6c0.3,0.7,0.4,1.5,0.1,2.4c-0.2,0.9-0.8,1.7-1.5,2.5c-0.3,0.3-0.6,0.6-0.9,0.9s-0.6,0.7-0.9,1c1,0,1.8,0.3,2.4,1
	s0.8,1.8,0.6,3.2c-0.1,1,0,1.8,0.3,2.3c0.3,0.5,0.9,0.8,2,0.9s2.6-0.1,4.7-0.5c0.3,0,0.6,0,0.8,0.2c0.3,0.2,0.4,0.4,0.5,0.7
	c0.1,0.3,0,0.6-0.2,0.8C243.8,39.2,243.5,39.4,243.2,39.4L243.2,39.4z M235,19.2c-1.3-0.2-2.7-0.5-4.1-0.8s-2.6-0.7-3.5-1
	c-0.3-0.1-0.5-0.3-0.6-0.6s-0.1-0.6,0-0.8c0.1-0.3,0.3-0.5,0.6-0.6s0.6-0.1,0.8,0c0.9,0.4,2,0.7,3.3,1c1.3,0.3,2.5,0.5,3.8,0.7
	c0.3,0,0.5,0.2,0.7,0.4s0.3,0.5,0.3,0.8c0,0.3-0.2,0.5-0.4,0.7C235.6,19.1,235.4,19.2,235,19.2L235,19.2z"/>
<path class="st0" d="M256.8,33.9c-0.3,0.2-0.6,0.3-0.9,0.3c-0.3,0-0.6-0.2-0.8-0.4c-0.2-0.3-0.3-0.6-0.3-1c0-0.3,0.2-0.6,0.4-0.8
	c0.5-0.4,1.1-0.9,1.8-1.4c0.7-0.6,1.5-1.2,2.2-1.8s1.5-1.2,2.2-1.7s1.3-1,1.7-1.3c0.3-0.2,0.6-0.3,1-0.3c0.3,0,0.6,0.2,0.8,0.5
	c0.2,0.3,0.3,0.6,0.3,0.9c0,0.4-0.2,0.6-0.5,0.9c-0.7,0.5-1.5,1.1-2.5,1.9c-1,0.8-2,1.5-2.9,2.3C258.2,32.8,257.4,33.4,256.8,33.9z
	 M265.7,36.6c-0.3-0.1-0.5-0.4-0.7-0.7c-0.1-0.3-0.1-0.7,0-1s0.4-0.5,0.7-0.7c0.3-0.1,0.6-0.1,1,0c1.2,0.5,2.4,0.8,3.3,0.8
	s1.8-0.2,2.4-0.7c0.6-0.5,0.9-1.2,0.9-2c0-1.6-0.2-2.9-0.7-4c-0.5-1-1-2-1.6-2.9c-0.4-0.7-0.8-1.4-1.2-2.1c-0.4-0.7-0.6-1.5-0.7-2.3
	c-0.1-0.8,0-1.8,0.2-2.9c0.1-0.3,0.3-0.6,0.5-0.8c0.3-0.2,0.6-0.2,1-0.1c0.3,0.1,0.6,0.3,0.8,0.5c0.2,0.3,0.2,0.6,0.2,1
	c-0.3,1.4-0.3,2.5,0.1,3.4s0.9,1.9,1.4,2.8c0.6,0.9,1.1,1.9,1.6,3.1c0.5,1.1,0.8,2.5,0.8,4.3c0,1.6-0.5,2.8-1.4,3.7
	c-1,0.9-2.2,1.4-3.7,1.5C269.1,37.6,267.5,37.3,265.7,36.6L265.7,36.6z M274.9,15.2c-0.7-0.6-1.5-1.1-2.4-1.7s-1.8-1-2.7-1.5
	s-1.7-0.8-2.5-1c-0.3-0.1-0.6-0.3-0.8-0.6s-0.2-0.6-0.1-0.9c0.1-0.3,0.3-0.6,0.6-0.7s0.6-0.2,1-0.1c0.9,0.3,1.8,0.7,2.8,1.2
	s2,1,3,1.6s1.8,1.2,2.6,1.7c0.3,0.2,0.5,0.5,0.5,0.8c0,0.3,0,0.7-0.3,0.9c-0.2,0.3-0.5,0.4-0.8,0.4
	C275.5,15.4,275.2,15.4,274.9,15.2L274.9,15.2z M288.7,33.8c-0.3,0.2-0.6,0.2-1,0.2c-0.3-0.1-0.6-0.3-0.8-0.5
	c-0.5-0.8-1.1-1.7-1.9-2.6c-0.8-1-1.6-2-2.5-2.9s-1.7-1.8-2.5-2.6c-0.2-0.2-0.4-0.5-0.4-0.9c0-0.3,0.1-0.6,0.3-0.9
	c0.2-0.3,0.5-0.4,0.9-0.4c0.3,0,0.6,0.1,0.9,0.3c0.8,0.8,1.7,1.7,2.6,2.7c0.9,1,1.8,2.1,2.6,3.1c0.8,1,1.5,2,2,2.7
	c0.2,0.3,0.2,0.6,0.2,1S289,33.6,288.7,33.8L288.7,33.8z M286.1,19.1c-0.2,0.2-0.5,0.3-0.8,0.2c-0.3,0-0.5-0.2-0.7-0.4
	c-0.4-0.5-0.9-1-1.5-1.6c-0.6-0.6-1.1-1.1-1.6-1.5c-0.2-0.2-0.3-0.4-0.4-0.7s0-0.5,0.2-0.7c0.2-0.2,0.5-0.3,0.7-0.3
	c0.3,0,0.5,0.1,0.7,0.3c0.3,0.2,0.6,0.5,1.1,0.9s0.8,0.8,1.2,1.2s0.7,0.8,1,1c0.2,0.2,0.3,0.5,0.3,0.8
	C286.5,18.6,286.4,18.9,286.1,19.1L286.1,19.1z M289.3,15.8c-0.2,0.2-0.4,0.3-0.7,0.3c-0.3,0-0.6-0.1-0.8-0.3
	c-0.4-0.4-0.9-1-1.5-1.5s-1.2-1-1.7-1.4c-0.2-0.2-0.3-0.4-0.4-0.6c0-0.3,0-0.5,0.2-0.7c0.2-0.2,0.4-0.4,0.7-0.4
	c0.3,0,0.5,0.1,0.8,0.2c0.3,0.2,0.7,0.5,1.1,0.9c0.4,0.4,0.9,0.7,1.3,1.1c0.4,0.4,0.8,0.7,1,1c0.2,0.2,0.3,0.4,0.3,0.7
	C289.6,15.3,289.5,15.6,289.3,15.8L289.3,15.8z"/>
<path class="st0" d="M316,39c-2.8,0-5.2-0.2-7.4-0.8c-2.1-0.6-3.7-1.6-4.9-2.9c-1.2-1.3-1.7-3-1.7-5c0-1.7,0.4-3,1.2-4.1
	c0.8-1.1,1.9-1.9,3.2-2.4c1.4-0.5,2.9-0.8,4.7-0.9s3.7,0.2,5.6,0.6c-1.2-1-2.3-2.3-3.4-3.8c-1.1-1.5-2.1-3.1-3-4.7
	c-1.7,0.3-3.4,0.5-5.1,0.7s-3.4,0.3-5,0.4c-0.3,0-0.6-0.1-0.9-0.3c-0.2-0.2-0.4-0.5-0.4-0.9c0-0.4,0.1-0.7,0.4-0.9s0.5-0.4,0.9-0.4
	c1.4-0.1,2.9-0.1,4.4-0.3c1.5-0.1,3.1-0.3,4.6-0.6c-0.3-0.8-0.6-1.6-0.9-2.4s-0.5-1.6-0.6-2.4c-0.1-0.3,0-0.7,0.2-0.9
	c0.2-0.3,0.5-0.5,0.8-0.5c0.4-0.1,0.7,0,1,0.2c0.3,0.2,0.5,0.4,0.5,0.8c0.3,1.6,0.9,3.2,1.6,4.9c1.5-0.3,3-0.6,4.4-0.9
	c1.4-0.3,2.7-0.7,3.8-1.1c0.3-0.1,0.7-0.1,1,0.1s0.5,0.4,0.6,0.8c0.1,0.3,0.1,0.6-0.1,0.9c-0.2,0.3-0.4,0.5-0.8,0.6
	c-1.2,0.3-2.4,0.7-3.7,1c-1.3,0.3-2.7,0.6-4.1,0.9c1.1,1.9,2.4,3.8,3.9,5.5s3.1,3.2,4.7,4.4c0.3,0.2,0.4,0.4,0.5,0.7
	c0.1,0.3,0,0.6-0.1,0.9c-0.1,0.3-0.3,0.5-0.6,0.6c-0.3,0.1-0.6,0.2-0.9,0.1c-3.2-1-5.9-1.6-8.3-1.6s-4.2,0.4-5.5,1.3
	c-1.3,0.9-2,2.2-2,3.9c0,1.5,0.5,2.7,1.4,3.7s2.3,1.6,4,2c1.7,0.4,3.7,0.6,6,0.6c0.3,0,0.6,0.1,0.9,0.4s0.4,0.5,0.4,0.9
	s-0.1,0.6-0.4,0.9S316.4,39,316,39L316,39z"/>
<path class="st0" d="M344.6,33.5c-1.1,0-2.1-0.2-3.1-0.7c-1-0.5-1.8-1.4-2.5-2.5c-0.7-1.1-1.2-2.5-1.7-4.3c-0.5-1.8-0.8-3.7-1-5.9
	c-0.2-2.1-0.3-4.2-0.1-6.2c0-0.3,0.2-0.6,0.4-0.9s0.5-0.3,0.9-0.3c0.4,0,0.7,0.2,0.9,0.4c0.2,0.3,0.3,0.6,0.3,0.9
	c-0.1,1.9-0.1,3.8,0.1,5.7c0.2,1.9,0.5,3.7,0.9,5.2c0.4,1.6,0.9,2.9,1.5,3.9c0.4,0.7,0.9,1.2,1.5,1.5c0.5,0.4,1.1,0.5,1.8,0.5
	c1.6,0,2.9-1.5,3.9-4.5c0.1-0.3,0.3-0.6,0.6-0.8s0.6-0.2,1-0.1c0.3,0.1,0.6,0.3,0.8,0.6c0.2,0.3,0.2,0.6,0,1
	c-0.7,2.2-1.6,3.7-2.7,4.7C346.8,32.8,345.7,33.4,344.6,33.5L344.6,33.5z M366,26.5c-0.3,0.1-0.7,0.1-1-0.1
	c-0.3-0.1-0.5-0.4-0.6-0.7c-0.7-1.7-1.6-3.3-2.9-4.9s-2.6-2.9-4.1-3.8c-0.3-0.2-0.4-0.5-0.5-0.8s0-0.7,0.2-0.9
	c0.2-0.3,0.5-0.4,0.9-0.4c0.3,0,0.6,0.1,1,0.3c1,0.6,2,1.5,3,2.5s2,2.2,2.8,3.5s1.5,2.5,1.9,3.7c0.1,0.3,0.1,0.7,0,1
	S366.4,26.4,366,26.5L366,26.5z"/>
<path class="st0" d="M400.4,37.8c-6.3,0.8-11.2,0.5-14.7-0.8s-5.2-3.8-5.2-7.4c0-2.2,0.6-4,1.8-5.6s2.9-3,5-4.1
	c-0.1-0.5-0.3-1.2-0.5-2.2c-0.2-1-0.5-2.1-0.8-3.4s-0.6-2.4-0.9-3.5c-0.3-1.1-0.5-2-0.8-2.7c-0.1-0.3-0.1-0.6,0.1-0.9
	c0.2-0.3,0.4-0.5,0.8-0.6c0.3-0.1,0.6-0.1,0.9,0.1c0.3,0.2,0.5,0.4,0.6,0.7c0.5,1.7,1,3.6,1.5,5.6s0.9,4,1.2,5.9
	c1.3-0.6,2.8-1.1,4.5-1.6c1.6-0.5,3.4-1,5.2-1.4c0.3-0.1,0.7,0,1,0.2c0.3,0.2,0.5,0.4,0.5,0.8s0,0.7-0.2,1c-0.2,0.3-0.5,0.5-0.8,0.5
	c-4.2,0.9-7.6,1.9-10,3.1c-2.4,1.1-4.2,2.4-5.2,3.7c-1,1.4-1.5,2.9-1.5,4.6c0,2.7,1.5,4.5,4.4,5.4c2.9,0.9,7.2,1,12.7,0.3
	c0.4,0,0.7,0,1,0.2c0.3,0.2,0.4,0.5,0.5,0.8c0,0.3,0,0.7-0.2,0.9S400.8,37.7,400.4,37.8L400.4,37.8z"/>
<g>
	<g>
		<defs>
			<circle id="SVGID_1_" cx="425.2" cy="23.5" r="22.9"/>
		</defs>
		<clipPath id="SVGID_00000026154220698708047740000000134470636657252492_">
			<use xlink:href="#SVGID_1_"  style="overflow:visible;"/>
		</clipPath>
		<g style="clip-path:url(#SVGID_00000026154220698708047740000000134470636657252492_);">
			<path class="st2" d="M425.2,0.5c12.7,0,22.9,10.3,22.9,22.9s-10.3,22.9-22.9,22.9s-22.9-10.3-22.9-22.9S412.5,0.5,425.2,0.5"/>
			<path class="st3" d="M416.5,3.7c1.7-0.3,3.2,0.6,3.5,2s-0.9,2.8-2.6,3.1c-1.7,0.3-3.2-0.6-3.5-2.1S414.8,4,416.5,3.7"/>
			<path class="st4" d="M442.6,25.6c3.1,0,5.6,2.5,5.6,5.6s-2.5,5.6-5.6,5.6s-5.6-2.5-5.6-5.6S439.5,25.6,442.6,25.6"/>
			<path class="st5" d="M416.4,12c5.2,0,9.4,4.2,9.4,9.4s-4.2,9.4-9.4,9.4s-9.4-4.2-9.4-9.4S411.2,12,416.4,12"/>
			<path class="st5" d="M434.2,12.1c5.2,0,9.4,4.2,9.4,9.4s-4.2,9.4-9.4,9.4s-9.4-4.2-9.4-9.4S429,12.1,434.2,12.1"/>
			<path class="st4" d="M407.9,25.6c3.1,0,5.6,2.5,5.6,5.6s-2.5,5.6-5.6,5.6s-5.6-2.5-5.6-5.6S404.8,25.6,407.9,25.6"/>
			<path class="st3" d="M430.2,5.8c0.3-1.4,1.9-2.2,3.6-1.8c1.7,0.4,2.8,1.8,2.5,3.2c-0.3,1.4-1.9,2.2-3.6,1.9
				C430.9,8.6,429.8,7.2,430.2,5.8"/>
		</g>
	</g>
	<g>
		<defs>
			<path id="SVGID_00000116944061770591379830000016883766230055492506_" d="M407.4,23.9c0,3.4,2.7,6.1,6.1,6.1s6.1-2.7,6.1-6.1
				s-2.7-6.1-6.1-6.1S407.4,20.6,407.4,23.9"/>
		</defs>
		<clipPath id="SVGID_00000139280007676519918800000005757359452791644843_">
			<use xlink:href="#SVGID_00000116944061770591379830000016883766230055492506_"  style="overflow:visible;"/>
		</clipPath>
		<g style="clip-path:url(#SVGID_00000139280007676519918800000005757359452791644843_);">
			<path class="st5" d="M413.5,17.8c3.4,0,6.1,2.7,6.1,6.1s-2.7,6.1-6.1,6.1s-6.1-2.7-6.1-6.1S410.1,17.8,413.5,17.8"/>
			<path class="st3" d="M419.7,12.7c3.1,0,5.6,2.5,5.6,5.6s-2.5,5.6-5.6,5.6s-5.6-2.5-5.6-5.6S416.7,12.7,419.7,12.7"/>
			<path class="st3" d="M419.7,24.4c3.1,0,5.6,2.5,5.6,5.6s-2.5,5.6-5.6,5.6s-5.6-2.5-5.6-5.6S416.7,24.4,419.7,24.4"/>
			<path class="st3" d="M407.7,12.7c3.1,0,5.6,2.5,5.6,5.6s-2.5,5.6-5.6,5.6s-5.6-2.5-5.6-5.6S404.6,12.7,407.7,12.7"/>
			<path class="st3" d="M407.7,24.4c3.1,0,5.6,2.5,5.6,5.6s-2.5,5.6-5.6,5.6s-5.6-2.5-5.6-5.6S404.6,24.4,407.7,24.4"/>
		</g>
	</g>
	<g>
		<defs>
			<circle id="SVGID_00000005976505400403996010000006172399117200521649_" cx="425.2" cy="23.5" r="22.9"/>
		</defs>
		<clipPath id="SVGID_00000177478750042567943560000010882756015323363230_">
			<use xlink:href="#SVGID_00000005976505400403996010000006172399117200521649_"  style="overflow:visible;"/>
		</clipPath>
		<g style="clip-path:url(#SVGID_00000177478750042567943560000010882756015323363230_);">
			<rect x="423.8" y="32.8" class="st3" width="3" height="0.9"/>
		</g>
	</g>
	<g>
		<defs>
			<path id="SVGID_00000163782487272477812890000011817228526608273339_" d="M424.8,23.9c0,3.4,2.7,6.1,6.1,6.1s6.1-2.7,6.1-6.1
				s-2.7-6.1-6.1-6.1S424.8,20.6,424.8,23.9"/>
		</defs>
		<clipPath id="SVGID_00000003075790167071696320000007314494792435153031_">
			<use xlink:href="#SVGID_00000163782487272477812890000011817228526608273339_"  style="overflow:visible;"/>
		</clipPath>
		<g style="clip-path:url(#SVGID_00000003075790167071696320000007314494792435153031_);">
			<path class="st5" d="M430.9,17.8c3.4,0,6.1,2.7,6.1,6.1s-2.7,6.1-6.1,6.1s-6.1-2.7-6.1-6.1S427.6,17.8,430.9,17.8"/>
			<path class="st3" d="M437.2,12.7c3.1,0,5.6,2.5,5.6,5.6s-2.5,5.6-5.6,5.6s-5.6-2.5-5.6-5.6S434.1,12.7,437.2,12.7"/>
			<path class="st3" d="M437.2,24.4c3.1,0,5.6,2.5,5.6,5.6s-2.5,5.6-5.6,5.6s-5.6-2.5-5.6-5.6S434.1,24.4,437.2,24.4"/>
			<path class="st3" d="M425,12.7c3.1,0,5.6,2.5,5.6,5.6s-2.5,5.6-5.6,5.6s-5.6-2.5-5.6-5.6S421.9,12.7,425,12.7"/>
			<path class="st3" d="M425,24.4c3.1,0,5.6,2.5,5.6,5.6s-2.5,5.6-5.6,5.6s-5.6-2.5-5.6-5.6S421.9,24.4,425,24.4"/>
		</g>
	</g>
</g>
<g>
	<g>
		<defs>
			<circle id="SVGID_00000057856356355932963280000013506921567243536043_" cx="34.9" cy="22.9" r="22.9"/>
		</defs>
		<clipPath id="SVGID_00000054234520674051467140000002665867651203498899_">
			<use xlink:href="#SVGID_00000057856356355932963280000013506921567243536043_"  style="overflow:visible;"/>
		</clipPath>
		<g style="clip-path:url(#SVGID_00000054234520674051467140000002665867651203498899_);">
			<path class="st2" d="M34.9,0c12.7,0,22.9,10.3,22.9,22.9S47.6,45.9,34.9,45.9S12,35.6,12,22.9S22.3,0,34.9,0"/>
			<path class="st3" d="M26.2,3.2c1.7-0.3,3.2,0.6,3.5,2s-0.9,2.8-2.6,3.1c-1.7,0.3-3.2-0.6-3.5-2.1S24.5,3.5,26.2,3.2"/>
			<path class="st4" d="M52.3,25.1c3.1,0,5.6,2.5,5.6,5.6s-2.5,5.6-5.6,5.6s-5.6-2.5-5.6-5.6S49.2,25.1,52.3,25.1"/>
			<path class="st5" d="M26.1,11.4c5.2,0,9.4,4.2,9.4,9.4s-4.2,9.4-9.4,9.4s-9.4-4.2-9.4-9.4S20.9,11.4,26.1,11.4"/>
			<path class="st5" d="M44,11.6c5.2,0,9.4,4.2,9.4,9.4s-4.2,9.4-9.4,9.4s-9.4-4.2-9.4-9.4S38.8,11.6,44,11.6"/>
			<path class="st4" d="M17.6,25.1c3.1,0,5.6,2.5,5.6,5.6s-2.5,5.6-5.6,5.6S12,33.7,12,30.7S14.5,25.1,17.6,25.1"/>
			<path class="st3" d="M39.9,5.2c0.3-1.4,1.9-2.2,3.6-1.8c1.7,0.4,2.8,1.8,2.4,3.2S44,8.9,42.3,8.5C40.7,8.1,39.6,6.6,39.9,5.2"/>
		</g>
	</g>
	<g>
		<defs>
			<path id="SVGID_00000110450058137917464280000004895638987957862317_" d="M17.1,23.4c0,3.4,2.7,6.1,6.1,6.1s6.1-2.7,6.1-6.1
				s-2.7-6.1-6.1-6.1S17.1,20,17.1,23.4"/>
		</defs>
		<clipPath id="SVGID_00000000905115223886878800000012293956151722344621_">
			<use xlink:href="#SVGID_00000110450058137917464280000004895638987957862317_"  style="overflow:visible;"/>
		</clipPath>
		<g style="clip-path:url(#SVGID_00000000905115223886878800000012293956151722344621_);">
			<path class="st5" d="M23.2,17.3c3.4,0,6.1,2.7,6.1,6.1s-2.7,6.1-6.1,6.1s-6.1-2.7-6.1-6.1S19.8,17.3,23.2,17.3"/>
			<path class="st3" d="M29.4,12.2c3.1,0,5.6,2.5,5.6,5.6s-2.5,5.6-5.6,5.6s-5.6-2.5-5.6-5.6S26.4,12.2,29.4,12.2"/>
			<path class="st3" d="M29.4,23.9c3.1,0,5.6,2.5,5.6,5.6S32.5,35,29.4,35s-5.6-2.5-5.6-5.6S26.4,23.9,29.4,23.9"/>
			<path class="st3" d="M17.4,12.2c3.1,0,5.6,2.5,5.6,5.6s-2.5,5.6-5.6,5.6s-5.6-2.5-5.6-5.6S14.3,12.2,17.4,12.2"/>
			<path class="st3" d="M17.4,23.9c3.1,0,5.6,2.5,5.6,5.6S20.5,35,17.4,35s-5.6-2.5-5.6-5.6S14.3,23.9,17.4,23.9"/>
		</g>
	</g>
	<g>
		<defs>
			<circle id="SVGID_00000050639186260292368010000006112659345879798185_" cx="34.9" cy="22.9" r="22.9"/>
		</defs>
		<clipPath id="SVGID_00000168115434923869024920000010056964300624063413_">
			<use xlink:href="#SVGID_00000050639186260292368010000006112659345879798185_"  style="overflow:visible;"/>
		</clipPath>
		<g style="clip-path:url(#SVGID_00000168115434923869024920000010056964300624063413_);">
			<rect x="33.8" y="31.8" class="st3" width="3" height="0.9"/>
		</g>
	</g>
	<g>
		<defs>
			<path id="SVGID_00000135678385703733082810000007861365686151290771_" d="M34.6,23.4c0,3.4,2.7,6.1,6.1,6.1s6.1-2.7,6.1-6.1
				s-2.7-6.1-6.1-6.1S34.6,20,34.6,23.4"/>
		</defs>
		<clipPath id="SVGID_00000047024299235459427650000012422016353605257388_">
			<use xlink:href="#SVGID_00000135678385703733082810000007861365686151290771_"  style="overflow:visible;"/>
		</clipPath>
		<g style="clip-path:url(#SVGID_00000047024299235459427650000012422016353605257388_);">
			<path class="st5" d="M40.7,17.3c3.4,0,6.1,2.7,6.1,6.1s-2.7,6.1-6.1,6.1s-6.1-2.7-6.1-6.1S37.3,17.3,40.7,17.3"/>
			<path class="st3" d="M46.9,12.2c3.1,0,5.6,2.5,5.6,5.6s-2.5,5.6-5.6,5.6s-5.6-2.5-5.6-5.6S43.8,12.2,46.9,12.2"/>
			<path class="st3" d="M46.9,23.9c3.1,0,5.6,2.5,5.6,5.6S50,35,46.9,35s-5.6-2.5-5.6-5.6S43.8,23.9,46.9,23.9"/>
			<path class="st3" d="M34.7,12.2c3.1,0,5.6,2.5,5.6,5.6s-2.5,5.6-5.6,5.6s-5.6-2.5-5.6-5.6S31.6,12.2,34.7,12.2"/>
			<path class="st3" d="M34.7,23.9c3.1,0,5.6,2.5,5.6,5.6S37.8,35,34.7,35s-5.6-2.5-5.6-5.6S31.6,23.9,34.7,23.9"/>
		</g>
	</g>
</g>
</svg>
